<svg class="typst-doc" viewBox="0 0 354.09 363" width="354.09pt" height="363pt" xmlns="http://www.w3.org/2000/svg" xmlns:xlink="http://www.w3.org/1999/xlink" xmlns:h5="http://www.w3.org/1999/xhtml">
    <path class="typst-shape" fill="#ffffff" fill-rule="nonzero" d="M 0 0v 363 h 354.09 v -363 Z "/>
    <g>
        <g class="typst-group">
            <g>
                <path class="typst-shape" fill="none" stroke="#aaaaaa" stroke-width="0.9899999999999999" stroke-linecap="butt" stroke-linejoin="miter" stroke-miterlimit="4" transform="matrix(1 0 0 1 123.09 32.505)" d="M 0 0v 297.99 "/>
                <path class="typst-shape" fill="none" stroke="#aaaaaa" stroke-width="0.9899999999999999" stroke-linecap="butt" stroke-linejoin="miter" stroke-miterlimit="4" transform="matrix(1 0 0 1 156.09 32.505)" d="M 0 0v 297.99 "/>
                <path class="typst-shape" fill="none" stroke="#aaaaaa" stroke-width="0.9899999999999999" stroke-linecap="butt" stroke-linejoin="miter" stroke-miterlimit="4" transform="matrix(1 0 0 1 189.09 32.505)" d="M 0 0v 297.99 "/>
                <path class="typst-shape" fill="none" stroke="#aaaaaa" stroke-width="0.9899999999999999" stroke-linecap="butt" stroke-linejoin="miter" stroke-miterlimit="4" transform="matrix(1 0 0 1 222.09 32.505)" d="M 0 0v 297.99 "/>
                <path class="typst-shape" fill="none" stroke="#aaaaaa" stroke-width="0.9899999999999999" stroke-linecap="butt" stroke-linejoin="miter" stroke-miterlimit="4" transform="matrix(1 0 0 1 255.09 32.505)" d="M 0 0v 297.99 "/>
                <path class="typst-shape" fill="none" stroke="#aaaaaa" stroke-width="0.9899999999999999" stroke-linecap="butt" stroke-linejoin="miter" stroke-miterlimit="4" transform="matrix(1 0 0 1 288.09 32.505)" d="M 0 0v 297.99 "/>
                <path class="typst-shape" fill="none" stroke="#aaaaaa" stroke-width="0.9899999999999999" stroke-linecap="butt" stroke-linejoin="miter" stroke-miterlimit="4" transform="matrix(1 0 0 1 32.505 132)" d="M 0 0h 289.08 "/>
                <path class="typst-shape" fill="none" stroke="#aaaaaa" stroke-width="0.9899999999999999" stroke-linecap="butt" stroke-linejoin="miter" stroke-miterlimit="4" transform="matrix(1 0 0 1 32.505 165)" d="M 0 0h 289.08 "/>
                <path class="typst-shape" fill="none" stroke="#aaaaaa" stroke-width="0.9899999999999999" stroke-linecap="butt" stroke-linejoin="miter" stroke-miterlimit="4" transform="matrix(1 0 0 1 32.505 198)" d="M 0 0h 289.08 "/>
                <path class="typst-shape" fill="none" stroke="#aaaaaa" stroke-width="0.9899999999999999" stroke-linecap="butt" stroke-linejoin="miter" stroke-miterlimit="4" transform="matrix(1 0 0 1 32.505 231)" d="M 0 0h 289.08 "/>
                <path class="typst-shape" fill="none" stroke="#aaaaaa" stroke-width="0.9899999999999999" stroke-linecap="butt" stroke-linejoin="miter" stroke-miterlimit="4" transform="matrix(1 0 0 1 32.505 264)" d="M 0 0h 289.08 "/>
                <path class="typst-shape" fill="none" stroke="#aaaaaa" stroke-width="0.9899999999999999" stroke-linecap="butt" stroke-linejoin="miter" stroke-miterlimit="4" transform="matrix(1 0 0 1 32.505 297)" d="M 0 0h 289.08 "/>
                <path class="typst-shape" fill="none" stroke="#000000" stroke-width="1.6500000000000001" stroke-linecap="butt" stroke-linejoin="miter" stroke-miterlimit="4" transform="matrix(1 0 0 1 33 98.175)" d="M 0 0v 232.65 "/>
                <path class="typst-shape" fill="none" stroke="#000000" stroke-width="1.6500000000000001" stroke-linecap="butt" stroke-linejoin="miter" stroke-miterlimit="4" transform="matrix(1 0 0 1 90.09 32.175)" d="M 0 0v 298.65 "/>
                <path class="typst-shape" fill="none" stroke="#000000" stroke-width="1.6500000000000001" stroke-linecap="butt" stroke-linejoin="miter" stroke-miterlimit="4" transform="matrix(1 0 0 1 321.09 32.175)" d="M 0 0v 298.65 "/>
                <path class="typst-shape" fill="none" stroke="#000000" stroke-width="1.6500000000000001" stroke-linecap="butt" stroke-linejoin="miter" stroke-miterlimit="4" transform="matrix(1 0 0 1 89.265 33)" d="M 0 0h 232.65 "/>
                <path class="typst-shape" fill="none" stroke="#000000" stroke-width="1.6500000000000001" stroke-linecap="butt" stroke-linejoin="miter" stroke-miterlimit="4" transform="matrix(1 0 0 1 32.175 99)" d="M 0 0h 289.74 "/>
                <path class="typst-shape" fill="none" stroke="#000000" stroke-width="1.6500000000000001" stroke-linecap="butt" stroke-linejoin="miter" stroke-miterlimit="4" transform="matrix(1 0 0 1 32.175 330)" d="M 0 0h 289.74 "/>
                <g class="typst-text" transform="matrix(1 0 0 -1 98.9175 60.357)">
                    <use xlink:href="#gB444A5DF63BE405A72DFB98300E99D67" x="0" y="0" fill="#000000" fill-rule="nonzero"/>
                </g>
                <g class="typst-text" transform="matrix(1 0 0 -1 131.9175 60.357)">
                    <use xlink:href="#gB444A5DF63BE405A72DFB98300E99D67" x="0" y="0" fill="#000000" fill-rule="nonzero"/>
                </g>
                <g class="typst-text" transform="matrix(1 0 0 -1 263.9175 60.357)">
                    <use xlink:href="#gB444A5DF63BE405A72DFB98300E99D67" x="0" y="0" fill="#000000" fill-rule="nonzero"/>
                </g>
                <g class="typst-text" transform="matrix(1 0 0 -1 296.9175 60.357)">
                    <use xlink:href="#gB444A5DF63BE405A72DFB98300E99D67" x="0" y="0" fill="#000000" fill-rule="nonzero"/>
                </g>
                <g class="typst-group">
                    <g>
                        <g class="typst-text" transform="matrix(1 0 0 -1 98.9175 93.357)">
                            <use xlink:href="#gB444A5DF63BE405A72DFB98300E99D67" x="0" y="0" fill="#000000" fill-rule="nonzero"/>
                        </g>
                        <g class="typst-text" transform="matrix(1 0 0 -1 131.9175 93.357)">
                            <use xlink:href="#gB444A5DF63BE405A72DFB98300E99D67" x="0" y="0" fill="#000000" fill-rule="nonzero"/>
                        </g>
                        <g class="typst-text" transform="matrix(1 0 0 -1 164.9175 93.357)">
                            <use xlink:href="#g8F9EE6E3126AC7734F1AA306E2ECD7DA" x="0" y="0" fill="#000000" fill-rule="nonzero"/>
                        </g>
                        <g class="typst-text" transform="matrix(1 0 0 -1 197.9175 93.357)">
                            <use xlink:href="#g8F9EE6E3126AC7734F1AA306E2ECD7DA" x="0" y="0" fill="#000000" fill-rule="nonzero"/>
                        </g>
                        <g class="typst-text" transform="matrix(1 0 0 -1 230.9175 93.357)">
                            <use xlink:href="#g8F9EE6E3126AC7734F1AA306E2ECD7DA" x="0" y="0" fill="#000000" fill-rule="nonzero"/>
                        </g>
                        <g class="typst-text" transform="matrix(1 0 0 -1 263.9175 93.357)">
                            <use xlink:href="#gB444A5DF63BE405A72DFB98300E99D67" x="0" y="0" fill="#000000" fill-rule="nonzero"/>
                        </g>
                        <g class="typst-text" transform="matrix(1 0 0 -1 296.9175 93.357)">
                            <use xlink:href="#gB444A5DF63BE405A72DFB98300E99D67" x="0" y="0" fill="#000000" fill-rule="nonzero"/>
                        </g>
                    </g>
                </g>
                <g class="typst-group">
                    <g>
                        <g class="typst-text" transform="matrix(1 0 0 -1 39.6 126.357)">
                            <use xlink:href="#gB444A5DF63BE405A72DFB98300E99D67" x="0" y="0" fill="#000000" fill-rule="nonzero"/>
                        </g>
                        <g class="typst-text" transform="matrix(1 0 0 -1 68.14500000000001 126.357)">
                            <use xlink:href="#gB444A5DF63BE405A72DFB98300E99D67" x="0" y="0" fill="#000000" fill-rule="nonzero"/>
                        </g>
                    </g>
                </g>
                <g class="typst-group">
                    <g>
                        <g class="typst-text" transform="matrix(1 0 0 -1 39.6 159.357)">
                            <use xlink:href="#gB444A5DF63BE405A72DFB98300E99D67" x="0" y="0" fill="#000000" fill-rule="nonzero"/>
                        </g>
                        <g class="typst-text" transform="matrix(1 0 0 -1 68.14500000000001 159.357)">
                            <use xlink:href="#gB444A5DF63BE405A72DFB98300E99D67" x="0" y="0" fill="#000000" fill-rule="nonzero"/>
                        </g>
                    </g>
                </g>
                <g class="typst-group">
                    <g>
                        <g class="typst-text" transform="matrix(1 0 0 -1 68.14500000000001 192.357)">
                            <use xlink:href="#g8F9EE6E3126AC7734F1AA306E2ECD7DA" x="0" y="0" fill="#000000" fill-rule="nonzero"/>
                        </g>
                    </g>
                </g>
                <g class="typst-group">
                    <g>
                        <g class="typst-text" transform="matrix(1 0 0 -1 68.14500000000001 225.357)">
                            <use xlink:href="#g8F9EE6E3126AC7734F1AA306E2ECD7DA" x="0" y="0" fill="#000000" fill-rule="nonzero"/>
                        </g>
                    </g>
                </g>
                <g class="typst-group">
                    <g>
                        <g class="typst-text" transform="matrix(1 0 0 -1 68.14500000000001 258.357)">
                            <use xlink:href="#g8F9EE6E3126AC7734F1AA306E2ECD7DA" x="0" y="0" fill="#000000" fill-rule="nonzero"/>
                        </g>
                    </g>
                </g>
                <g class="typst-group">
                    <g>
                        <g class="typst-text" transform="matrix(1 0 0 -1 39.6 291.357)">
                            <use xlink:href="#gB444A5DF63BE405A72DFB98300E99D67" x="0" y="0" fill="#000000" fill-rule="nonzero"/>
                        </g>
                        <g class="typst-text" transform="matrix(1 0 0 -1 68.14500000000001 291.357)">
                            <use xlink:href="#gB444A5DF63BE405A72DFB98300E99D67" x="0" y="0" fill="#000000" fill-rule="nonzero"/>
                        </g>
                    </g>
                </g>
                <g class="typst-group">
                    <g>
                        <g class="typst-text" transform="matrix(1 0 0 -1 39.6 324.357)">
                            <use xlink:href="#gB444A5DF63BE405A72DFB98300E99D67" x="0" y="0" fill="#000000" fill-rule="nonzero"/>
                        </g>
                        <g class="typst-text" transform="matrix(1 0 0 -1 68.14500000000001 324.357)">
                            <use xlink:href="#gB444A5DF63BE405A72DFB98300E99D67" x="0" y="0" fill="#000000" fill-rule="nonzero"/>
                        </g>
                    </g>
                </g>
            </g>
        </g>
    </g>
    <defs id="glyph">
        <symbol id="gB444A5DF63BE405A72DFB98300E99D67" overflow="visible">
            <path d="M 0 0m 2.013 15.444 c 0 -0.6930008 0.62699986 -1.2870007 1.3199999 -1.2870007 c 0.5610001 0 1.5509999 0.59399986 1.5509999 1.3200006 c 0 0.26399994 -0.065999985 0.4619999 -0.13199997 0.69299984 c -0.065999985 0.230999 -0.26399994 0.5279999 -0.26399994 0.7919998 c 0 0.82500076 0.8580003 2.0130005 3.2670002 2.0130005 c 1.1879997 0 2.8710003 -0.82500076 2.8710003 -3.993 c 0 -2.1120005 -0.7590008 -3.828 -2.7060003 -5.8080006 l -2.442 -2.409 c -3.2340002 -3.3 -3.762 -4.884 -3.762 -6.831 c 0 0 1.683 0.066 2.7389998 0.066 h 5.7749996 c 1.0560007 0 2.5740004 -0.066 2.5740004 -0.066 c 0.4289999 1.749 0.7589998 4.224 0.7919998 5.2139997 c -0.19799995 0.16500044 -0.62699986 0.23100042 -0.9569998 0.16500044 c -0.5609999 -2.3430002 -1.1219997 -3.1680002 -2.3100004 -3.1680002 h -5.8739996 c 0 1.5840001 2.277 3.828 2.442 3.993 l 3.3329997 3.2009997 c 1.8810005 1.8150005 3.3000002 3.2670002 3.3000002 5.7750006 c 0 3.5639992 -2.9039993 5.015999 -5.5769997 5.015999 c -3.663 0 -5.94 -2.7059994 -5.94 -4.685999 Z "/>
        </symbol>
        <symbol id="g8F9EE6E3126AC7734F1AA306E2ECD7DA" overflow="visible">
            <path d="M 0 0m 7.095 18.975 c 1.4190001 0 2.7389998 -0.8579998 2.7389998 -2.9700012 c 0 -1.6499996 -1.9139996 -4.190999 -5.1809998 -4.652999 l 0.16499996 -1.0560007 c 0.56100035 0.065999985 1.1550002 0.065999985 1.5840001 0.065999985 c 1.881 0 4.3230004 -0.5279999 4.3230004 -4.2569995 c 0 -4.389 -2.9370003 -5.28 -4.0920005 -5.28 c -1.6830001 0 -1.98 0.759 -2.376 1.3529999 c -0.32999992 0.4619999 -0.75900006 0.85800004 -1.4189999 0.85800004 c -0.6930001 0 -1.386 -0.6270001 -1.386 -1.155 c 0 -1.32 2.7719998 -2.211 4.752 -2.211 c 3.9269996 0 7.4249997 2.541 7.4249997 6.897 c 0 3.5969996 -2.7059994 4.8840003 -4.653 5.214 l -0.032999992 0.065999985 c 2.7060003 1.2869997 3.4650002 2.6399994 3.4650002 4.389 c 0 0.9899998 -0.23099995 1.7819996 -1.0229998 2.6070004 c -0.72599983 0.72599983 -1.8810005 1.2869987 -3.5970001 1.2869987 c -4.851 0 -6.237 -3.1679993 -6.237 -4.256999 c 0 -0.4619999 0.33000004 -1.1220007 1.1220001 -1.1220007 c 1.155 0 1.287 1.0890007 1.287 1.7159996 c 0 2.1120014 2.277 2.5080013 3.1349998 2.5080013 Z "/>
        </symbol>
    </defs>
</svg>
